<?xml version="1.0" encoding="utf-8"?>
<!-- Generator: Adobe Illustrator 21.1.0, SVG Export Plug-In . SVG Version: 6.00 Build 0)  -->
<svg version="1.1" id="Layer_1" xmlns="http://www.w3.org/2000/svg" xmlns:xlink="http://www.w3.org/1999/xlink" x="0px" y="0px"
	 viewBox="0 0 2000 2253.2" style="enable-background:new 0 0 2000 2253.2;" xml:space="preserve">
<style type="text/css">
	.st0{fill:#FFFFFF;}
</style>
<g>
	<path class="st0" d="M2000.5,1999.7c-93.2,0-186.3,0-281.6,0c-4.9-31.6-9.7-62.4-14.7-94c-43.8,0-86.7,0-130.4,0
		c-5.9,27.5-11,54.3-18,80.7c-1.5,5.4-10.2,12.7-15.6,12.8c-119.9,0.7-239.9,0.2-359.8,0.8c-12.6,0.1-16-6.6-20-15.7
		c-37-84.7-74.2-169.2-111.4-253.8c-14.9-33.9-15.7-34.3-55.2-27c0,97.4,0,195.2,0,294.6c-91,0-180.4,0-271.5,0
		c0-239.7,0-479.8,0-723.2c6.7,0,13.9,0,21.1,0c122,0,244,0.1,366,0c56.2,0,110.7,8.8,161.4,33.8c18.2,9,35.8,20.4,51.4,33.4
		c27.6,23.1,41.8,53.1,41,90.2c-0.9,43.2-1.5,86.4,0.2,129.5c1.4,34.7-13,60-40.6,77.8c-19.3,12.5-40.7,21.5-63.2,33.2
		c29.6,51,59.6,102.8,92.6,159.6c47-188.7,92.8-372.4,138.9-557.4c31.4,0,61.4,0,91.5,0c71.3,0,142.6,0.6,213.8-0.5
		c17-0.3,23.2,4.9,27.3,21.3c57,228.4,114.8,456.6,172.4,684.8C1997.1,1984.1,2000.5,1996.9,2000.5,1999.7z M993.9,1580.1
		c30.5,0,59.1,1,87.5-0.4c15.4-0.8,24.7-11.3,24.9-27.4c0.3-33.5,0.3-67,0-100.5c-0.1-14.9-7.8-26.1-22.5-27.4
		c-29.6-2.7-59.4-3.1-90-4.5C993.9,1475.6,993.9,1527.4,993.9,1580.1z M1681.4,1747.7c-11.4-73.4-22.5-144.5-33.6-215.7
		c-1.4,0.1-2.7,0.2-4.1,0.3c-13,71.4-25.9,142.8-39.1,215.4C1631.2,1747.7,1654.3,1747.7,1681.4,1747.7z"/>
	<path class="st0" d="M672.8,1999.6c-72.6,0-143.2,0.4-213.8-0.7c-6.5-0.1-15-8.2-19.1-14.7c-60.8-96.1-120.9-192.6-181.3-289
		c-3.6-5.7-7.4-11.3-14.5-22.1c0,111.6,0,217.7,0,325.1c-82.6,0-162.5,0-243.9,0c0-240.2,0-480.5,0-722.3c6.3-0.5,12.2-1.3,18.1-1.3
		c66.5-0.1,133,0.4,199.5-0.4c13.6-0.2,20.7,4.5,27.3,16.1c56.8,98.4,114.3,196.5,171.7,294.7c3.3,5.6,7,11,14.4,15.5
		c0-107.8,0-215.6,0-324.7c81.7,0,160.9,0,241.5,0C672.8,1516.7,672.8,1756.9,672.8,1999.6z"/>
</g>
<polygon class="st0" points="1000.4,2265.2 1131.1,2054.2 869.7,2054.2 "/>
</svg>
